<?xml version="1.0" standalone="no"?><!DOCTYPE svg PUBLIC "-//W3C//DTD SVG 1.1//EN" "http://www.w3.org/Graphics/SVG/1.1/DTD/svg11.dtd">
<svg t="1713423757727" class="icon" viewBox="0 0 1024 1024" version="1.1" xmlns="http://www.w3.org/2000/svg" p-id="1386" width="200" height="200" 
xmlns:xlink="http://www.w3.org/1999/xlink">
<path d="M418.112 912a31.744 31.744 0 0 1-29.824-20.352 32.128 32.128 0 0 1-1.536-5.248l-23.424-117.12-113.024 38.4a31.168 31.168 0 0 1-16.256 1.088 32.128 32.128 0 0 1-21.696-15.424l-93.76-162.56a32 32 0 0 1 6.4-40.064l89.6-78.784-89.408-78.72a32 32 0 0 1-6.4-40.064l93.568-162.368a32 32 0 0 1 37.952-14.336l113.024 38.4 23.424-117.248a31.936 31.936 0 0 1 31.36-25.6h187.52a32 32 0 0 1 31.36 25.6l23.424 117.12 113.024-38.4a32 32 0 0 1 37.952 14.336l93.76 162.432a31.616 31.616 0 0 1 0.384 31.488 31.872 31.872 0 0 1-6.784 8.576l-89.6 78.784 89.6 78.784a31.36 31.36 0 0 1 10.368 18.88 31.36 31.36 0 0 1-3.968 21.184l-93.76 162.432a31.232 31.232 0 0 1-16.448 13.952 32 32 0 0 1-21.504 0.384l-113.024-38.4-23.36 117.248a32.128 32.128 0 0 1-31.36 25.6H418.112z m13.44-165.76c0.96 2.944 1.792 5.888 2.368 8.96l16.96 84.8h121.984l16.96-84.864a71.808 71.808 0 0 1 78.72-57.664 71.872 71.872 0 0 1 14.976 3.328l81.984 27.712 60.992-105.6-65.024-56.512a72.64 72.64 0 0 1-24.064-46.464 72.384 72.384 0 0 1 24.064-61.696l64.96-57.088-60.992-105.6-81.92 27.648a72.064 72.064 0 0 1-93.696-54.4l-16.96-84.8H450.88l-16.64 84.864a71.808 71.808 0 0 1-86.592 56.448 72.064 72.064 0 0 1-7.36-2.112l-81.984-28.032-60.864 105.664 64.896 56.768a71.872 71.872 0 0 1 0 108.16l-64.896 57.408 60.992 105.6 81.856-27.968a73.408 73.408 0 0 1 34.88-2.816 70.72 70.72 0 0 1 32.064 13.888 71.232 71.232 0 0 1 24.32 34.048v0.32zM343.872 512a167.808 167.808 0 0 1 151.552-167.168 167.808 167.808 0 0 1 181.248 134.4 170.816 170.816 0 0 1 0 65.536 169.6 169.6 0 0 1-34.944 73.792 168.64 168.64 0 0 1-113.408 60.608 168.448 168.448 0 0 1-146.304-60.608A167.808 167.808 0 0 1 343.872 512z m72 0A96 96 0 1 0 608 512a96 96 0 0 0-192.128 0z" fill="#e6e6e6" p-id="1387"></path></svg>